<svg width="104" height="103" viewBox="0 0 104 103" fill="none" xmlns="http://www.w3.org/2000/svg">
<path d="M53.471 103C42.3048 102.868 33.3954 100.52 25.1498 95.6929C16.2257 90.4547 9.79448 83.0155 5.2218 73.8743C1.66691 66.7726 -0.0146544 59.2307 9.61849e-05 51.3514C9.61849e-05 46.4799 0.840879 41.6672 2.18318 36.9719C4.69078 28.1241 9.36672 20.5236 15.9602 14.1849C21.713 8.65319 28.5867 4.88225 36.2423 2.47589C41.7885 0.729818 47.4232 -0.106538 53.2202 0.0108457C61.2298 0.157575 68.8116 2.05038 75.9361 5.71861C79.8007 7.69945 83.3114 10.1498 86.6155 12.967C90.5097 16.2978 93.5335 20.2741 96.2181 24.5733C100.407 31.2935 102.841 38.6006 103.711 46.4506C104.464 53.3028 103.726 59.9937 101.72 66.5818C99.596 73.4928 96.0854 79.6261 91.4832 85.1577C87.8398 89.5303 83.4589 93.0518 78.5027 95.8836C73.3252 98.8476 67.838 101.019 61.9378 101.988C58.6042 102.545 55.2263 102.795 53.471 103ZM97.2507 51.8942C96.8524 26.3927 77.1161 6.46693 51.6861 6.68702C26.6691 6.90711 6.62311 26.3194 6.84437 52.2024C7.05087 76.6181 26.5954 96.4412 52.3499 96.3238C78.4879 96.2064 96.8229 75.6937 97.2507 51.8942Z" fill="white"/>
<path d="M52.4384 89.1927C46.0219 89.3101 40.0332 87.6814 34.369 84.7762C31.4336 83.2795 28.6457 81.5188 26.2266 79.2738C21.4769 74.8573 18.1876 69.5017 16.3585 63.295C15.0604 58.8491 14.3672 54.3446 14.6622 49.6932C14.9129 45.8489 15.8422 42.1807 17.1993 38.5859C19.4119 32.7314 22.834 27.6986 27.5247 23.5461C31.3303 20.1714 35.6965 17.7356 40.4757 16.0189C42.6883 15.2266 44.9451 14.6984 47.2905 14.6103C48.1165 14.581 48.972 14.5076 49.6948 15.0652C50.2848 15.52 50.2701 16.239 49.6063 16.6058C49.267 16.7966 48.8835 16.8846 48.5 17.002C45.2844 17.9704 42.1868 19.2029 39.5464 21.3452C36.8028 23.5755 34.3247 26.0845 32.4366 29.1072C31.1533 31.1614 29.8553 33.2009 29.0735 35.5192C27.6427 39.701 27.2444 43.9855 27.9525 48.314C29.0587 55.0782 31.7581 61.0501 36.7438 65.9802C41.3017 70.4848 46.7299 73.0672 52.9842 74.0356C57.8519 74.7986 62.6311 74.2704 67.307 72.7591C73.9153 70.6168 79.1665 66.7578 82.7656 60.786C84.2554 58.3209 85.229 55.6211 85.8927 52.8332C86.2468 51.3073 86.4975 49.7666 86.8073 48.2406C86.9105 47.7417 86.8515 47.1108 87.5891 47.0081C88.4446 46.8907 89.3739 47.3456 89.6099 48.0352C89.6984 48.314 89.7426 48.6074 89.7574 48.9009C89.8901 52.98 89.3886 56.9857 88.3856 60.9474C87.4563 64.6009 86.055 68.0344 84.0194 71.2184C82.6034 73.4487 81.2463 75.723 79.373 77.6158C73.3252 83.705 66.0827 87.5053 57.5864 88.8406C55.9048 89.09 54.1642 89.0753 52.4384 89.1927Z" fill="white"/>
<path d="M57.2029 44.3963C57.0701 44.7191 56.9668 44.9099 56.8931 45.1006C55.4033 49.1797 53.9135 53.2734 52.4384 57.3525C51.8484 58.9665 51.3174 60.5952 50.6536 62.1652C50.3143 62.9576 49.8718 63.7792 49.267 64.3515C48.1312 65.4079 46.5972 65.2319 45.8007 63.9113C45.0041 62.5761 44.3994 61.1234 43.8241 59.6708C42.4965 56.3401 41.2132 52.98 39.9447 49.6199C38.7794 46.5239 37.6878 43.4279 36.552 40.3173C35.903 38.5272 35.2245 36.7517 34.5902 34.947C34.0444 33.377 34.8262 32.3499 36.1243 31.7483C37.7616 30.9706 39.9742 31.7336 40.6527 33.3916C41.6705 35.8714 42.5703 38.4098 43.4996 40.9335C44.8419 44.6017 46.1694 48.27 47.5707 52.0996C47.8362 51.2926 48.0427 50.603 48.2788 49.928C49.8423 45.5848 51.4206 41.2417 52.9842 36.8985C53.3972 35.7687 53.766 34.6388 54.2527 33.5384C55.064 31.7043 57.5421 30.9413 59.2532 31.983C59.5777 32.1885 59.8727 32.57 60.0055 32.9221C61.8198 37.6615 63.6194 42.4155 65.4042 47.1695C66.0385 48.8422 66.6285 50.5443 67.2628 52.3344C67.602 51.3073 67.8823 50.3682 68.2068 49.4585C69.6818 45.2914 71.1569 41.1243 72.6762 36.9718C73.1335 35.71 73.694 34.4921 74.2103 33.2449C74.6085 32.2765 75.3313 31.6896 76.3786 31.6015C77.7357 31.4842 79.137 31.2787 80.3023 32.3205C81.0398 32.9808 81.3053 33.7438 80.9808 34.6829C80.8628 35.035 80.73 35.3725 80.5973 35.71C79.1812 39.5102 77.7947 43.3252 76.3344 47.1108C74.5938 51.6741 72.7942 56.208 71.0242 60.7713C70.7734 61.4316 70.5521 62.1065 70.3014 62.7668C69.8146 64.0287 68.5903 64.9824 67.366 64.9531C66.009 64.9091 65.0649 64.2488 64.5634 62.9722C63.0883 59.2453 61.5838 55.5331 60.1087 51.8061C59.1499 49.3851 58.2059 46.9494 57.2029 44.3963Z" fill="white"/>
</svg>
